<svg width="6630" height="812" viewBox="0 0 6630 812" fill="none" xmlns="http://www.w3.org/2000/svg">
<path d="M908 750H196C175 750 50 721 50 596V189C50 187 50 185 51 181C55 140 73 110 96 89C117 67 146 48 188 44H908C1103 44 1262 202 1262 397C1262 592 1103 750 908 750ZM908 604C1023 604 1116 511 1116 397C1116 282 1023 189 908 189H196V605L908 604ZM2414.52 189H1507.52V324H1567.52V325L1568.52 324H2095.52C2095.52 345 2065.52 470 1941.52 470H1568.52L1567.52 469V470H1515.52C1390.52 470 1361.52 345 1361.52 324V189C1361.52 169 1390.52 44 1515.52 44H2260.52C2384.52 44 2414.52 169 2414.52 189ZM1361.52 604H2414.52C2414.52 625 2384.52 750 2260.52 750H1515.52C1390.52 750 1361.52 625 1361.52 604ZM2514.84 44C2535.84 44 2660.84 73 2660.84 198V750C2639.84 750 2514.84 721 2514.84 596V44ZM3597.94 472C3586.94 490 3495.94 580 3389.94 513L3084.94 327L2958.94 248C2933.94 232 2916.94 213 2905.94 194V750C2885.94 750 2760.94 721 2760.94 596V197C2760.94 72 2885.94 43 2905.94 43C3135.94 188 3366.94 330 3597.94 472ZM3919.94 751C3940.94 751 4065.94 722 4065.94 597V197C4065.94 72 3940.94 43 3919.94 43L3741.94 155L3509.94 298C3520.94 316 3610.94 407 3717.94 341C3766.94 310 3816.94 280 3866.94 248C3891.94 232 3908.94 213 3919.94 193V751ZM5218.21 189V604C5218.21 625 5189.21 750 5064.21 750H4320.21C4195.21 750 4166.21 625 4166.21 604V189C4166.21 168 4195.21 43 4320.21 43H5064.21C5189.21 43 5218.21 168 5218.21 189ZM4311.21 604H5073.21V189H4311.21V604ZM6327.55 469H5472.55C5347.55 469 5318.55 344 5318.55 324V189C5318.55 168 5347.55 43 5472.55 43H6294.55C6419.55 43 6448.55 168 6448.55 189H5464.55V324H6319.55C6444.55 324 6473.55 448 6473.55 469V604C6473.55 625 6444.55 750 6319.55 750H5472.55C5347.55 750 5318.55 625 5318.55 604H6327.55V469Z" fill="black"/>
</svg>
