<svg width="7892" height="1017" viewBox="0 0 7892 1017" fill="none" xmlns="http://www.w3.org/2000/svg">
<path d="M2170 853H1458C1437 853 1312 824 1312 699V292C1312 290 1312 288 1313 284C1317 243 1335 213 1358 192C1379 170 1408 151 1450 147H2170C2365 147 2524 305 2524 500C2524 695 2365 853 2170 853ZM2170 707C2285 707 2378 614 2378 500C2378 385 2285 292 2170 292H1458V708L2170 707ZM3676.52 292H2769.52V427H2829.52V428L2830.52 427H3357.52C3357.52 448 3327.52 573 3203.52 573H2830.52L2829.52 572V573H2777.52C2652.52 573 2623.52 448 2623.52 427V292C2623.52 272 2652.52 147 2777.52 147H3522.52C3646.52 147 3676.52 272 3676.52 292ZM2623.52 707H3676.52C3676.52 728 3646.52 853 3522.52 853H2777.52C2652.52 853 2623.52 728 2623.52 707ZM3776.84 147C3797.84 147 3922.84 176 3922.84 301V853C3901.84 853 3776.84 824 3776.84 699V147ZM4859.94 575C4848.94 593 4757.94 683 4651.94 616L4346.94 430L4220.94 351C4195.94 335 4178.94 316 4167.94 297V853C4147.94 853 4022.94 824 4022.94 699V300C4022.94 175 4147.94 146 4167.94 146C4397.94 291 4628.94 433 4859.94 575ZM5181.94 854C5202.94 854 5327.94 825 5327.94 700V300C5327.94 175 5202.94 146 5181.94 146L5003.94 258L4771.94 401C4782.94 419 4872.94 510 4979.94 444C5028.94 413 5078.94 383 5128.94 351C5153.94 335 5170.94 316 5181.94 296V854ZM6480.21 292V707C6480.21 728 6451.21 853 6326.21 853H5582.21C5457.21 853 5428.21 728 5428.21 707V292C5428.21 271 5457.21 146 5582.21 146H6326.21C6451.21 146 6480.21 271 6480.21 292ZM5573.21 707H6335.21V292H5573.21V707ZM7589.55 572H6734.55C6609.55 572 6580.55 447 6580.55 427V292C6580.55 271 6609.55 146 6734.55 146H7556.55C7681.55 146 7710.55 271 7710.55 292H6726.55V427H7581.55C7706.55 427 7735.55 551 7735.55 572V707C7735.55 728 7706.55 853 7581.55 853H6734.55C6609.55 853 6580.55 728 6580.55 707H7589.55V572Z" fill="black"/>
<circle cx="508.5" cy="508.5" r="508.5" fill="url(#paint0_radial_494_637)"/>
<circle cx="508.5" cy="508.5" r="508.5" fill="url(#paint1_linear_494_637)" fill-opacity="0.2" style="mix-blend-mode:multiply"/>
<defs>
<radialGradient id="paint0_radial_494_637" cx="0" cy="0" r="1" gradientUnits="userSpaceOnUse" gradientTransform="translate(269.147 222.469) rotate(47.9391) scale(890.249)">
<stop stop-color="#E6B08A"/>
<stop offset="0.115385" stop-color="#C98A63"/>
<stop offset="0.235577" stop-color="#A86549"/>
<stop offset="0.360577" stop-color="#8B4E3A"/>
<stop offset="0.490385" stop-color="#6E3A2E"/>
<stop offset="0.615385" stop-color="#4F2824"/>
<stop offset="0.735577" stop-color="#3A1D1D"/>
<stop offset="0.865385" stop-color="#1A0E12"/>
<stop offset="0.996094" stop-color="#050507"/>
</radialGradient>
<linearGradient id="paint1_linear_494_637" x1="1017" y1="3.0309e-05" x2="-3.0309e-05" y2="1017" gradientUnits="userSpaceOnUse">
<stop stop-color="white"/>
<stop offset="1" stop-opacity="0.15"/>
</linearGradient>
</defs>
</svg>
